<svg xmlns="http://www.w3.org/2000/svg" width="1024" height="1024" viewBox="0 0 1024 1024" role="img" aria-label="チュリトス＋王冠 アイコン案B">
  <defs>
    <linearGradient id="bgB" x1="170" y1="90" x2="850" y2="920" gradientUnits="userSpaceOnUse">
      <stop stop-color="#fffbeb"/>
      <stop offset="0.38" stop-color="#facc15"/>
      <stop offset="1" stop-color="#c2410c"/>
    </linearGradient>
    <filter id="shadowB" x="-30%" y="-30%" width="160%" height="160%">
      <feDropShadow dx="0" dy="30" stdDeviation="26" flood-color="#7c2d12" flood-opacity="0.32"/>
    </filter>
  </defs>
  <rect width="1024" height="1024" rx="220" fill="url(#bgB)"/>
  <circle cx="512" cy="512" r="360" fill="#111827" opacity="0.12"/>
  <path d="M280 328 386 220l126 118 126-118 106 108-52 154H332L280 328Z" fill="#fff7cc" stroke="#111827" stroke-width="28" stroke-linejoin="round" filter="url(#shadowB)"/>
  <circle cx="386" cy="220" r="30" fill="#14b8a6" stroke="#111827" stroke-width="18"/>
  <circle cx="512" cy="338" r="28" fill="#ef4444" stroke="#111827" stroke-width="16"/>
  <circle cx="638" cy="220" r="30" fill="#14b8a6" stroke="#111827" stroke-width="18"/>
  <g filter="url(#shadowB)">
    <path d="M360 398c72-34 150-6 214 66 74 84 94 180 48 242-46 61-134 54-210-36-72-86-102-204-52-272Z" fill="#9a3412"/>
    <path d="M420 386c72-16 142 24 192 104 58 94 58 190 2 238-55 48-138 20-197-79-57-97-62-218 3-263Z" fill="#d97706"/>
    <path d="M396 448c80-12 166 72 190 176" fill="none" stroke="#fef3c7" stroke-width="26" stroke-linecap="round"/>
    <path d="M446 542c44 18 86 58 108 108" fill="none" stroke="#7c2d12" stroke-width="18" stroke-linecap="round" opacity="0.65"/>
  </g>
  <text x="512" y="880" text-anchor="middle" font-family="system-ui, -apple-system, BlinkMacSystemFont, sans-serif" font-size="72" font-weight="900" fill="#111827">CHURRO</text>
</svg>
